<mxfile host="Electron" modified="2024-02-26T16:37:55.510Z" agent="Mozilla/5.0 (Windows NT 10.0; Win64; x64) AppleWebKit/537.36 (KHTML, like Gecko) draw.io/23.1.5 Chrome/120.0.6099.109 Electron/28.1.0 Safari/537.36" etag="fIrTGrGwb-ri8Xo5aA2Q" version="23.1.5" type="device">
  <diagram name="Page-1" id="nY2MPPAW5ZwuCeBeAnr3">
    <mxGraphModel dx="2450" dy="1040" grid="1" gridSize="10" guides="1" tooltips="1" connect="1" arrows="1" fold="1" page="1" pageScale="1" pageWidth="850" pageHeight="1100" math="0" shadow="0">
      <root>
        <mxCell id="0" />
        <mxCell id="1" parent="0" />
        <mxCell id="hcWIyMQXQOss8XHs0uEl-1" value="Mahasiswa" style="whiteSpace=wrap;html=1;align=center;" parent="1" vertex="1">
          <mxGeometry x="110" y="165" width="100" height="40" as="geometry" />
        </mxCell>
        <mxCell id="hcWIyMQXQOss8XHs0uEl-3" value="Petugas" style="whiteSpace=wrap;html=1;align=center;" parent="1" vertex="1">
          <mxGeometry x="560" y="390" width="100" height="40" as="geometry" />
        </mxCell>
        <mxCell id="hcWIyMQXQOss8XHs0uEl-6" value="NPM" style="ellipse;whiteSpace=wrap;html=1;align=center;fontStyle=4;" parent="1" vertex="1">
          <mxGeometry x="-20" y="90" width="100" height="40" as="geometry" />
        </mxCell>
        <mxCell id="hcWIyMQXQOss8XHs0uEl-7" value="Nama" style="ellipse;whiteSpace=wrap;html=1;align=center;" parent="1" vertex="1">
          <mxGeometry x="90" y="60" width="100" height="40" as="geometry" />
        </mxCell>
        <mxCell id="hcWIyMQXQOss8XHs0uEl-9" value="" style="endArrow=none;html=1;rounded=0;exitX=1;exitY=1;exitDx=0;exitDy=0;entryX=0.5;entryY=0;entryDx=0;entryDy=0;" parent="1" source="hcWIyMQXQOss8XHs0uEl-6" target="hcWIyMQXQOss8XHs0uEl-1" edge="1">
          <mxGeometry relative="1" as="geometry">
            <mxPoint x="170" y="335" as="sourcePoint" />
            <mxPoint x="330" y="335" as="targetPoint" />
          </mxGeometry>
        </mxCell>
        <mxCell id="hcWIyMQXQOss8XHs0uEl-10" value="" style="endArrow=none;html=1;rounded=0;exitX=0.5;exitY=1;exitDx=0;exitDy=0;entryX=0.5;entryY=0;entryDx=0;entryDy=0;" parent="1" source="hcWIyMQXQOss8XHs0uEl-7" target="hcWIyMQXQOss8XHs0uEl-1" edge="1">
          <mxGeometry relative="1" as="geometry">
            <mxPoint x="170" y="335" as="sourcePoint" />
            <mxPoint x="330" y="335" as="targetPoint" />
          </mxGeometry>
        </mxCell>
        <mxCell id="hcWIyMQXQOss8XHs0uEl-35" value="Id Petugas" style="ellipse;whiteSpace=wrap;html=1;align=center;fontStyle=4;" parent="1" vertex="1">
          <mxGeometry x="485" y="450" width="100" height="40" as="geometry" />
        </mxCell>
        <mxCell id="hcWIyMQXQOss8XHs0uEl-39" value="" style="endArrow=none;html=1;rounded=0;exitX=0.25;exitY=1;exitDx=0;exitDy=0;entryX=0.5;entryY=0;entryDx=0;entryDy=0;" parent="1" source="hcWIyMQXQOss8XHs0uEl-3" target="hcWIyMQXQOss8XHs0uEl-35" edge="1">
          <mxGeometry relative="1" as="geometry">
            <mxPoint x="800" y="450" as="sourcePoint" />
            <mxPoint x="715" y="460" as="targetPoint" />
          </mxGeometry>
        </mxCell>
        <mxCell id="hcWIyMQXQOss8XHs0uEl-40" value="Nama Petugas" style="ellipse;whiteSpace=wrap;html=1;align=center;" parent="1" vertex="1">
          <mxGeometry x="560" y="500" width="100" height="40" as="geometry" />
        </mxCell>
        <mxCell id="hcWIyMQXQOss8XHs0uEl-41" value="" style="endArrow=none;html=1;rounded=0;exitX=0.5;exitY=1;exitDx=0;exitDy=0;entryX=0.5;entryY=0;entryDx=0;entryDy=0;" parent="1" source="hcWIyMQXQOss8XHs0uEl-3" target="hcWIyMQXQOss8XHs0uEl-40" edge="1">
          <mxGeometry relative="1" as="geometry">
            <mxPoint x="800" y="450" as="sourcePoint" />
            <mxPoint x="960" y="450" as="targetPoint" />
          </mxGeometry>
        </mxCell>
        <mxCell id="hcWIyMQXQOss8XHs0uEl-47" value="Perpustakaan" style="whiteSpace=wrap;html=1;align=center;" parent="1" vertex="1">
          <mxGeometry x="560" y="165" width="100" height="40" as="geometry" />
        </mxCell>
        <mxCell id="hcWIyMQXQOss8XHs0uEl-48" value="Pinjam Buku" style="shape=rhombus;perimeter=rhombusPerimeter;whiteSpace=wrap;html=1;align=center;" parent="1" vertex="1">
          <mxGeometry x="330" y="155" width="120" height="60" as="geometry" />
        </mxCell>
        <mxCell id="hcWIyMQXQOss8XHs0uEl-49" value="Kode Gedung" style="ellipse;whiteSpace=wrap;html=1;align=center;fontStyle=4;" parent="1" vertex="1">
          <mxGeometry x="500" y="70" width="100" height="40" as="geometry" />
        </mxCell>
        <mxCell id="hcWIyMQXQOss8XHs0uEl-52" value="" style="endArrow=none;html=1;rounded=0;exitX=0.5;exitY=1;exitDx=0;exitDy=0;entryX=0.25;entryY=0;entryDx=0;entryDy=0;" parent="1" source="hcWIyMQXQOss8XHs0uEl-49" target="hcWIyMQXQOss8XHs0uEl-47" edge="1">
          <mxGeometry relative="1" as="geometry">
            <mxPoint x="350" y="300" as="sourcePoint" />
            <mxPoint x="510" y="300" as="targetPoint" />
          </mxGeometry>
        </mxCell>
        <mxCell id="hcWIyMQXQOss8XHs0uEl-56" value="Nama Gedung" style="ellipse;whiteSpace=wrap;html=1;align=center;" parent="1" vertex="1">
          <mxGeometry x="620" y="70" width="100" height="40" as="geometry" />
        </mxCell>
        <mxCell id="hcWIyMQXQOss8XHs0uEl-57" value="" style="endArrow=none;html=1;rounded=0;entryX=0.5;entryY=1;entryDx=0;entryDy=0;exitX=0.75;exitY=0;exitDx=0;exitDy=0;" parent="1" source="hcWIyMQXQOss8XHs0uEl-47" target="hcWIyMQXQOss8XHs0uEl-56" edge="1">
          <mxGeometry relative="1" as="geometry">
            <mxPoint x="350" y="300" as="sourcePoint" />
            <mxPoint x="510" y="300" as="targetPoint" />
          </mxGeometry>
        </mxCell>
        <mxCell id="hcWIyMQXQOss8XHs0uEl-58" value="Melalui" style="shape=rhombus;perimeter=rhombusPerimeter;whiteSpace=wrap;html=1;align=center;" parent="1" vertex="1">
          <mxGeometry x="550" y="270" width="120" height="60" as="geometry" />
        </mxCell>
        <mxCell id="hcWIyMQXQOss8XHs0uEl-61" value="Buku" style="whiteSpace=wrap;html=1;align=center;" parent="1" vertex="1">
          <mxGeometry x="200" y="390" width="100" height="40" as="geometry" />
        </mxCell>
        <mxCell id="hcWIyMQXQOss8XHs0uEl-62" value="Mengambil" style="shape=rhombus;perimeter=rhombusPerimeter;whiteSpace=wrap;html=1;align=center;" parent="1" vertex="1">
          <mxGeometry x="365" y="380" width="120" height="60" as="geometry" />
        </mxCell>
        <mxCell id="hcWIyMQXQOss8XHs0uEl-65" value="Judul Buku" style="ellipse;whiteSpace=wrap;html=1;align=center;" parent="1" vertex="1">
          <mxGeometry x="130" y="490" width="100" height="40" as="geometry" />
        </mxCell>
        <mxCell id="hcWIyMQXQOss8XHs0uEl-66" value="Penerbit" style="ellipse;whiteSpace=wrap;html=1;align=center;" parent="1" vertex="1">
          <mxGeometry x="265" y="490" width="100" height="40" as="geometry" />
        </mxCell>
        <mxCell id="hcWIyMQXQOss8XHs0uEl-69" value="Kode Rak" style="ellipse;whiteSpace=wrap;html=1;align=center;fontStyle=4;" parent="1" vertex="1">
          <mxGeometry x="190" y="560" width="100" height="40" as="geometry" />
        </mxCell>
        <mxCell id="hcWIyMQXQOss8XHs0uEl-70" value="" style="endArrow=none;html=1;rounded=0;exitX=0.5;exitY=1;exitDx=0;exitDy=0;entryX=0.5;entryY=0;entryDx=0;entryDy=0;" parent="1" source="hcWIyMQXQOss8XHs0uEl-61" target="hcWIyMQXQOss8XHs0uEl-69" edge="1">
          <mxGeometry relative="1" as="geometry">
            <mxPoint x="350" y="300" as="sourcePoint" />
            <mxPoint x="510" y="300" as="targetPoint" />
          </mxGeometry>
        </mxCell>
        <mxCell id="hcWIyMQXQOss8XHs0uEl-71" value="" style="endArrow=none;html=1;rounded=0;exitX=0.5;exitY=0;exitDx=0;exitDy=0;entryX=0.5;entryY=1;entryDx=0;entryDy=0;" parent="1" source="hcWIyMQXQOss8XHs0uEl-65" target="hcWIyMQXQOss8XHs0uEl-61" edge="1">
          <mxGeometry relative="1" as="geometry">
            <mxPoint x="350" y="300" as="sourcePoint" />
            <mxPoint x="510" y="300" as="targetPoint" />
          </mxGeometry>
        </mxCell>
        <mxCell id="hcWIyMQXQOss8XHs0uEl-72" value="" style="endArrow=none;html=1;rounded=0;exitX=0.5;exitY=1;exitDx=0;exitDy=0;entryX=0.5;entryY=0;entryDx=0;entryDy=0;" parent="1" source="hcWIyMQXQOss8XHs0uEl-61" target="hcWIyMQXQOss8XHs0uEl-66" edge="1">
          <mxGeometry relative="1" as="geometry">
            <mxPoint x="350" y="300" as="sourcePoint" />
            <mxPoint x="510" y="300" as="targetPoint" />
          </mxGeometry>
        </mxCell>
        <mxCell id="hcWIyMQXQOss8XHs0uEl-74" value="Mendaftar" style="shape=rhombus;perimeter=rhombusPerimeter;whiteSpace=wrap;html=1;align=center;" parent="1" vertex="1">
          <mxGeometry x="305" y="260" width="120" height="60" as="geometry" />
        </mxCell>
        <mxCell id="hcWIyMQXQOss8XHs0uEl-76" value="Rak" style="whiteSpace=wrap;html=1;align=center;" parent="1" vertex="1">
          <mxGeometry x="-150" y="390" width="100" height="40" as="geometry" />
        </mxCell>
        <mxCell id="hcWIyMQXQOss8XHs0uEl-78" value="berada di" style="shape=rhombus;perimeter=rhombusPerimeter;whiteSpace=wrap;html=1;align=center;" parent="1" vertex="1">
          <mxGeometry x="10" y="380" width="120" height="60" as="geometry" />
        </mxCell>
        <mxCell id="hcWIyMQXQOss8XHs0uEl-81" value="Warna Rak" style="ellipse;whiteSpace=wrap;html=1;align=center;" parent="1" vertex="1">
          <mxGeometry x="-230" y="470" width="100" height="40" as="geometry" />
        </mxCell>
        <mxCell id="hcWIyMQXQOss8XHs0uEl-82" value="Kapasitas Buku" style="ellipse;whiteSpace=wrap;html=1;align=center;" parent="1" vertex="1">
          <mxGeometry x="-100" y="470" width="100" height="40" as="geometry" />
        </mxCell>
        <mxCell id="hcWIyMQXQOss8XHs0uEl-83" value="Kode Rak" style="ellipse;whiteSpace=wrap;html=1;align=center;fontStyle=4;" parent="1" vertex="1">
          <mxGeometry x="-300" y="390" width="100" height="40" as="geometry" />
        </mxCell>
        <mxCell id="hcWIyMQXQOss8XHs0uEl-84" value="" style="endArrow=none;html=1;rounded=0;exitX=1;exitY=0.5;exitDx=0;exitDy=0;entryX=0;entryY=0.5;entryDx=0;entryDy=0;" parent="1" source="hcWIyMQXQOss8XHs0uEl-83" target="hcWIyMQXQOss8XHs0uEl-76" edge="1">
          <mxGeometry relative="1" as="geometry">
            <mxPoint x="350" y="200" as="sourcePoint" />
            <mxPoint x="510" y="200" as="targetPoint" />
          </mxGeometry>
        </mxCell>
        <mxCell id="hcWIyMQXQOss8XHs0uEl-85" value="" style="endArrow=none;html=1;rounded=0;exitX=0.25;exitY=1;exitDx=0;exitDy=0;entryX=0.5;entryY=0;entryDx=0;entryDy=0;" parent="1" source="hcWIyMQXQOss8XHs0uEl-76" target="hcWIyMQXQOss8XHs0uEl-81" edge="1">
          <mxGeometry relative="1" as="geometry">
            <mxPoint x="350" y="200" as="sourcePoint" />
            <mxPoint x="510" y="200" as="targetPoint" />
          </mxGeometry>
        </mxCell>
        <mxCell id="hcWIyMQXQOss8XHs0uEl-86" value="" style="endArrow=none;html=1;rounded=0;exitX=0.75;exitY=1;exitDx=0;exitDy=0;entryX=0.5;entryY=0;entryDx=0;entryDy=0;" parent="1" source="hcWIyMQXQOss8XHs0uEl-76" target="hcWIyMQXQOss8XHs0uEl-82" edge="1">
          <mxGeometry relative="1" as="geometry">
            <mxPoint x="350" y="200" as="sourcePoint" />
            <mxPoint x="510" y="200" as="targetPoint" />
          </mxGeometry>
        </mxCell>
        <mxCell id="H5hJ1cJA7Lm2Vp9csb4s-2" value="" style="endArrow=none;html=1;rounded=0;exitX=1;exitY=0.5;exitDx=0;exitDy=0;entryX=0;entryY=0.5;entryDx=0;entryDy=0;" edge="1" parent="1" source="hcWIyMQXQOss8XHs0uEl-1" target="hcWIyMQXQOss8XHs0uEl-48">
          <mxGeometry relative="1" as="geometry">
            <mxPoint x="200" y="140" as="sourcePoint" />
            <mxPoint x="360" y="140" as="targetPoint" />
          </mxGeometry>
        </mxCell>
        <mxCell id="H5hJ1cJA7Lm2Vp9csb4s-3" value="M" style="resizable=0;html=1;whiteSpace=wrap;align=right;verticalAlign=bottom;" connectable="0" vertex="1" parent="H5hJ1cJA7Lm2Vp9csb4s-2">
          <mxGeometry x="1" relative="1" as="geometry">
            <mxPoint x="-50" as="offset" />
          </mxGeometry>
        </mxCell>
        <mxCell id="H5hJ1cJA7Lm2Vp9csb4s-4" value="" style="endArrow=none;html=1;rounded=0;exitX=1;exitY=0.5;exitDx=0;exitDy=0;entryX=0;entryY=0.5;entryDx=0;entryDy=0;" edge="1" parent="1" source="hcWIyMQXQOss8XHs0uEl-48" target="hcWIyMQXQOss8XHs0uEl-47">
          <mxGeometry relative="1" as="geometry">
            <mxPoint x="220" y="195" as="sourcePoint" />
            <mxPoint x="340" y="195" as="targetPoint" />
          </mxGeometry>
        </mxCell>
        <mxCell id="H5hJ1cJA7Lm2Vp9csb4s-5" value="1" style="resizable=0;html=1;whiteSpace=wrap;align=right;verticalAlign=bottom;" connectable="0" vertex="1" parent="H5hJ1cJA7Lm2Vp9csb4s-4">
          <mxGeometry x="1" relative="1" as="geometry">
            <mxPoint x="-50" as="offset" />
          </mxGeometry>
        </mxCell>
        <mxCell id="H5hJ1cJA7Lm2Vp9csb4s-8" value="" style="endArrow=none;html=1;rounded=0;exitX=0.5;exitY=1;exitDx=0;exitDy=0;entryX=0.5;entryY=0;entryDx=0;entryDy=0;" edge="1" parent="1" source="hcWIyMQXQOss8XHs0uEl-47" target="hcWIyMQXQOss8XHs0uEl-58">
          <mxGeometry relative="1" as="geometry">
            <mxPoint x="460" y="195" as="sourcePoint" />
            <mxPoint x="570" y="195" as="targetPoint" />
          </mxGeometry>
        </mxCell>
        <mxCell id="H5hJ1cJA7Lm2Vp9csb4s-9" value="1" style="resizable=0;html=1;whiteSpace=wrap;align=right;verticalAlign=bottom;" connectable="0" vertex="1" parent="H5hJ1cJA7Lm2Vp9csb4s-8">
          <mxGeometry x="1" relative="1" as="geometry">
            <mxPoint x="10" y="-20" as="offset" />
          </mxGeometry>
        </mxCell>
        <mxCell id="H5hJ1cJA7Lm2Vp9csb4s-10" value="" style="endArrow=none;html=1;rounded=0;exitX=0.5;exitY=1;exitDx=0;exitDy=0;entryX=0.5;entryY=0;entryDx=0;entryDy=0;" edge="1" parent="1" source="hcWIyMQXQOss8XHs0uEl-58" target="hcWIyMQXQOss8XHs0uEl-3">
          <mxGeometry relative="1" as="geometry">
            <mxPoint x="680" y="315" as="sourcePoint" />
            <mxPoint x="680" y="380" as="targetPoint" />
          </mxGeometry>
        </mxCell>
        <mxCell id="H5hJ1cJA7Lm2Vp9csb4s-11" value="M" style="resizable=0;html=1;whiteSpace=wrap;align=right;verticalAlign=bottom;" connectable="0" vertex="1" parent="H5hJ1cJA7Lm2Vp9csb4s-10">
          <mxGeometry x="1" relative="1" as="geometry">
            <mxPoint x="20" y="-20" as="offset" />
          </mxGeometry>
        </mxCell>
        <mxCell id="H5hJ1cJA7Lm2Vp9csb4s-12" value="" style="endArrow=none;html=1;rounded=0;exitX=1;exitY=1;exitDx=0;exitDy=0;entryX=0;entryY=0;entryDx=0;entryDy=0;" edge="1" parent="1" source="hcWIyMQXQOss8XHs0uEl-1" target="hcWIyMQXQOss8XHs0uEl-74">
          <mxGeometry relative="1" as="geometry">
            <mxPoint x="460" y="195" as="sourcePoint" />
            <mxPoint x="570" y="195" as="targetPoint" />
          </mxGeometry>
        </mxCell>
        <mxCell id="H5hJ1cJA7Lm2Vp9csb4s-13" value="1" style="resizable=0;html=1;whiteSpace=wrap;align=right;verticalAlign=bottom;" connectable="0" vertex="1" parent="H5hJ1cJA7Lm2Vp9csb4s-12">
          <mxGeometry x="1" relative="1" as="geometry">
            <mxPoint x="-70" y="-25" as="offset" />
          </mxGeometry>
        </mxCell>
        <mxCell id="H5hJ1cJA7Lm2Vp9csb4s-14" value="" style="endArrow=none;html=1;rounded=0;exitX=1;exitY=1;exitDx=0;exitDy=0;entryX=0;entryY=0;entryDx=0;entryDy=0;" edge="1" parent="1" source="hcWIyMQXQOss8XHs0uEl-74" target="hcWIyMQXQOss8XHs0uEl-3">
          <mxGeometry relative="1" as="geometry">
            <mxPoint x="220" y="215" as="sourcePoint" />
            <mxPoint x="345" y="285" as="targetPoint" />
          </mxGeometry>
        </mxCell>
        <mxCell id="H5hJ1cJA7Lm2Vp9csb4s-15" value="1" style="resizable=0;html=1;whiteSpace=wrap;align=right;verticalAlign=bottom;" connectable="0" vertex="1" parent="H5hJ1cJA7Lm2Vp9csb4s-14">
          <mxGeometry x="1" relative="1" as="geometry">
            <mxPoint x="-70" y="-25" as="offset" />
          </mxGeometry>
        </mxCell>
        <mxCell id="H5hJ1cJA7Lm2Vp9csb4s-16" value="" style="endArrow=none;html=1;rounded=0;exitX=1;exitY=0.5;exitDx=0;exitDy=0;entryX=0;entryY=0.5;entryDx=0;entryDy=0;" edge="1" parent="1" source="hcWIyMQXQOss8XHs0uEl-62" target="hcWIyMQXQOss8XHs0uEl-3">
          <mxGeometry relative="1" as="geometry">
            <mxPoint x="220" y="195" as="sourcePoint" />
            <mxPoint x="340" y="195" as="targetPoint" />
          </mxGeometry>
        </mxCell>
        <mxCell id="H5hJ1cJA7Lm2Vp9csb4s-17" value="M" style="resizable=0;html=1;whiteSpace=wrap;align=right;verticalAlign=bottom;" connectable="0" vertex="1" parent="H5hJ1cJA7Lm2Vp9csb4s-16">
          <mxGeometry x="1" relative="1" as="geometry">
            <mxPoint x="-40" as="offset" />
          </mxGeometry>
        </mxCell>
        <mxCell id="H5hJ1cJA7Lm2Vp9csb4s-18" value="" style="endArrow=none;html=1;rounded=0;entryX=0;entryY=0.5;entryDx=0;entryDy=0;exitX=1;exitY=0.5;exitDx=0;exitDy=0;" edge="1" parent="1" source="hcWIyMQXQOss8XHs0uEl-61" target="hcWIyMQXQOss8XHs0uEl-62">
          <mxGeometry relative="1" as="geometry">
            <mxPoint x="320" y="390" as="sourcePoint" />
            <mxPoint x="570" y="195" as="targetPoint" />
          </mxGeometry>
        </mxCell>
        <mxCell id="H5hJ1cJA7Lm2Vp9csb4s-19" value="1" style="resizable=0;html=1;whiteSpace=wrap;align=right;verticalAlign=bottom;" connectable="0" vertex="1" parent="H5hJ1cJA7Lm2Vp9csb4s-18">
          <mxGeometry x="1" relative="1" as="geometry">
            <mxPoint x="-35" as="offset" />
          </mxGeometry>
        </mxCell>
        <mxCell id="H5hJ1cJA7Lm2Vp9csb4s-20" value="" style="endArrow=none;html=1;rounded=0;entryX=0;entryY=0.5;entryDx=0;entryDy=0;exitX=1;exitY=0.5;exitDx=0;exitDy=0;" edge="1" parent="1" source="hcWIyMQXQOss8XHs0uEl-78" target="hcWIyMQXQOss8XHs0uEl-61">
          <mxGeometry relative="1" as="geometry">
            <mxPoint x="310" y="420" as="sourcePoint" />
            <mxPoint x="375" y="420" as="targetPoint" />
          </mxGeometry>
        </mxCell>
        <mxCell id="H5hJ1cJA7Lm2Vp9csb4s-21" value="1" style="resizable=0;html=1;whiteSpace=wrap;align=right;verticalAlign=bottom;" connectable="0" vertex="1" parent="H5hJ1cJA7Lm2Vp9csb4s-20">
          <mxGeometry x="1" relative="1" as="geometry">
            <mxPoint x="-35" as="offset" />
          </mxGeometry>
        </mxCell>
        <mxCell id="H5hJ1cJA7Lm2Vp9csb4s-22" value="" style="endArrow=none;html=1;rounded=0;exitX=1;exitY=0.5;exitDx=0;exitDy=0;entryX=0;entryY=0.5;entryDx=0;entryDy=0;" edge="1" parent="1" source="hcWIyMQXQOss8XHs0uEl-76" target="hcWIyMQXQOss8XHs0uEl-78">
          <mxGeometry relative="1" as="geometry">
            <mxPoint x="220" y="195" as="sourcePoint" />
            <mxPoint x="340" y="195" as="targetPoint" />
          </mxGeometry>
        </mxCell>
        <mxCell id="H5hJ1cJA7Lm2Vp9csb4s-23" value="M" style="resizable=0;html=1;whiteSpace=wrap;align=right;verticalAlign=bottom;" connectable="0" vertex="1" parent="H5hJ1cJA7Lm2Vp9csb4s-22">
          <mxGeometry x="1" relative="1" as="geometry">
            <mxPoint x="-20" as="offset" />
          </mxGeometry>
        </mxCell>
        <mxCell id="H5hJ1cJA7Lm2Vp9csb4s-24" value="Nama : Oktario Mufti Yudha&lt;br&gt;NPM : 2320506044" style="text;strokeColor=none;fillColor=none;spacingLeft=4;spacingRight=4;overflow=hidden;rotatable=0;points=[[0,0.5],[1,0.5]];portConstraint=eastwest;fontSize=12;whiteSpace=wrap;html=1;" vertex="1" parent="1">
          <mxGeometry x="-240" y="110" width="250" height="50" as="geometry" />
        </mxCell>
      </root>
    </mxGraphModel>
  </diagram>
</mxfile>
